# xmcd
#
# Track frame offsets:
#	150
#	21267
#	36962
#	61520
#
# Disc length: 1212 seconds
#
# Revision: 0
# Processed by: cddbd v1.5.2PL0 Copyright (c) Steve Scherf et al.
# Submitted via: EasyCDDAExtractor 2010.4.0.0
#
DISCID=2804ba04
DTITLE=Rikky Roxx - Never Give You Up - Single
DYEAR=1999
DGENRE=Dance
TTITLE0=Never Give You Up (Kenn The Killer Tequila Mix)
TTITLE1=Never Give You Up
TTITLE2=Never Give You Up (DNA Club Remix)
TTITLE3=Never Give You Up (C'N'L Extended Version)
EXTD=
EXTT0=
EXTT1=
EXTT2=
EXTT3=
PLAYORDER=
